<svg width="42" height="42" viewBox="0 0 42 42" fill="none" xmlns="http://www.w3.org/2000/svg">
<rect y="4" width="38" height="38" rx="10" fill="#5844EE"/>
<path d="M16.25 25.75L21.75 20.25" stroke="white" stroke-width="1.5" stroke-linecap="round" stroke-linejoin="round"/>
<path d="M16.7083 21.1667C16.9615 21.1667 17.1667 20.9615 17.1667 20.7083C17.1667 20.4552 16.9615 20.25 16.7083 20.25C16.4552 20.25 16.25 20.4552 16.25 20.7083C16.25 20.9615 16.4552 21.1667 16.7083 21.1667Z" fill="white" stroke="white" stroke-width="1.5" stroke-linecap="round" stroke-linejoin="round"/>
<path d="M21.2913 25.7507C21.5445 25.7507 21.7497 25.5454 21.7497 25.2923C21.7497 25.0392 21.5445 24.834 21.2913 24.834C21.0382 24.834 20.833 25.0392 20.833 25.2923C20.833 25.5454 21.0382 25.7507 21.2913 25.7507Z" fill="white" stroke="white" stroke-width="1.5" stroke-linecap="round" stroke-linejoin="round"/>
<path d="M12.5833 18.6004C12.5833 18.0656 12.7957 17.5526 13.1739 17.1744C13.5521 16.7962 14.0651 16.5838 14.5999 16.5838H15.5166C16.0491 16.5835 16.5599 16.3726 16.9374 15.9971L17.5791 15.3554C17.7665 15.167 17.9893 15.0174 18.2347 14.9153C18.4802 14.8133 18.7433 14.7607 19.0091 14.7607C19.2749 14.7607 19.5381 14.8133 19.7835 14.9153C20.0289 15.0174 20.2517 15.167 20.4391 15.3554L21.0808 15.9971C21.4584 16.3726 21.9691 16.5835 22.5016 16.5838H23.4183C23.9531 16.5838 24.4661 16.7962 24.8443 17.1744C25.2225 17.5526 25.4349 18.0656 25.4349 18.6004V19.5171C25.4352 20.0496 25.6461 20.5603 26.0216 20.9379L26.6633 21.5796C26.8517 21.767 27.0013 21.9898 27.1034 22.2352C27.2054 22.4806 27.2579 22.7438 27.2579 23.0096C27.2579 23.2754 27.2054 23.5385 27.1034 23.7839C27.0013 24.0294 26.8517 24.2522 26.6633 24.4396L26.0216 25.0813C25.6461 25.4588 25.4352 25.9696 25.4349 26.5021V27.4188C25.4349 27.9536 25.2225 28.4666 24.8443 28.8448C24.4661 29.223 23.9531 29.4354 23.4183 29.4354H22.5016C21.9691 29.4357 21.4584 29.6466 21.0808 30.0221L20.4391 30.6638C20.2517 30.8522 20.0289 31.0018 19.7835 31.1038C19.5381 31.2059 19.2749 31.2584 19.0091 31.2584C18.7433 31.2584 18.4802 31.2059 18.2347 31.1038C17.9893 31.0018 17.7665 30.8522 17.5791 30.6638L16.9374 30.0221C16.5599 29.6466 16.0491 29.4357 15.5166 29.4354H14.5999C14.0651 29.4354 13.5521 29.223 13.1739 28.8448C12.7957 28.4666 12.5833 27.9536 12.5833 27.4188V26.5021C12.583 25.9696 12.3721 25.4588 11.9966 25.0813L11.3549 24.4396C11.1665 24.2522 11.0169 24.0294 10.9148 23.7839C10.8128 23.5385 10.7603 23.2754 10.7603 23.0096C10.7603 22.7438 10.8128 22.4806 10.9148 22.2352C11.0169 21.9898 11.1665 21.767 11.3549 21.5796L11.9966 20.9379C12.3721 20.5603 12.583 20.0496 12.5833 19.5171V18.6004" stroke="white" stroke-width="1.5" stroke-linecap="round" stroke-linejoin="round"/>
<circle cx="35" cy="7" r="6" fill="#FFAE58" stroke="#FFAE58" stroke-width="2"/>
</svg>
